<?xml version="1.0" encoding="utf-8"?>
<!-- Generator: Adobe Illustrator 24.0.1, SVG Export Plug-In . SVG Version: 6.00 Build 0)  -->
<svg version="1.1" id="Capa_1" xmlns="http://www.w3.org/2000/svg" xmlns:xlink="http://www.w3.org/1999/xlink" x="0px" y="0px"
	 viewBox="0 0 60 60" style="enable-background:new 0 0 60 60;" xml:space="preserve">
<style type="text/css">
	.st0{fill:#26281F;}
	.st1{fill:#231F20;}
	.st2{fill:#FEFEFE;}
	.st3{fill:#FFFFFF;}
	.st4{fill:#FFFD04;}
	.st5{fill:#ED1C24;}
</style>
<g>
	<g>
		<g>
			<path class="st0" d="M21.4,47c0.2,0,0.4,0.2,0.4,0.4c0,0.2-0.2,0.4-0.4,0.4c-0.2,0-0.4-0.2-0.4-0.4C21,47.2,21.2,47,21.4,47z"/>
			<path class="st0" d="M23.7,46.9c0.3,0,0.5,0.2,0.5,0.5c0,0.3-0.2,0.5-0.5,0.5c-0.3,0-0.5-0.2-0.5-0.5
				C23.2,47.1,23.4,46.9,23.7,46.9z"/>
			<path class="st0" d="M25.9,46.9c0.3,0,0.5,0.2,0.5,0.5c0,0.3-0.2,0.5-0.5,0.5c-0.3,0-0.5-0.2-0.5-0.5
				C25.4,47.1,25.7,46.9,25.9,46.9z"/>
			<path class="st0" d="M28.2,46.8c0.3,0,0.6,0.3,0.6,0.6c0,0.3-0.3,0.6-0.6,0.6c-0.3,0-0.6-0.3-0.6-0.6
				C27.7,47.1,27.9,46.8,28.2,46.8z"/>
			<path class="st0" d="M30.5,46.8c0.3,0,0.6,0.3,0.6,0.6c0,0.3-0.3,0.6-0.6,0.6c-0.3,0-0.6-0.3-0.6-0.6
				C29.9,47.1,30.2,46.8,30.5,46.8z"/>
			<path class="st0" d="M32.8,46.8c0.3,0,0.6,0.3,0.6,0.6c0,0.3-0.3,0.6-0.6,0.6c-0.3,0-0.6-0.3-0.6-0.6
				C32.2,47.1,32.5,46.8,32.8,46.8z"/>
			<path class="st0" d="M35.1,46.8c0.3,0,0.6,0.3,0.6,0.6c0,0.3-0.2,0.6-0.6,0.6c-0.3,0-0.6-0.3-0.6-0.6
				C34.5,47.1,34.8,46.8,35.1,46.8z"/>
			<path class="st0" d="M37.4,46.9c0.3,0,0.5,0.2,0.5,0.5c0,0.3-0.2,0.5-0.5,0.5c-0.3,0-0.5-0.2-0.5-0.5
				C36.9,47.1,37.1,46.9,37.4,46.9z"/>
			<path class="st0" d="M39.6,47c0.2,0,0.4,0.2,0.4,0.4c0,0.2-0.2,0.4-0.4,0.4c-0.2,0-0.4-0.2-0.4-0.4C39.2,47.2,39.4,47,39.6,47z"
				/>
			<path class="st0" d="M14.5,44.9c0.1,0,0.1,0.1,0.1,0.1c0,0.1-0.1,0.1-0.1,0.1c-0.1,0-0.1-0.1-0.1-0.1
				C14.4,45,14.5,44.9,14.5,44.9z"/>
			<path class="st0" d="M16.8,44.8c0.2,0,0.3,0.1,0.3,0.3c0,0.2-0.1,0.3-0.3,0.3c-0.2,0-0.3-0.1-0.3-0.3
				C16.5,44.9,16.7,44.8,16.8,44.8z"/>
			<path class="st0" d="M19.1,44.6c0.2,0,0.4,0.2,0.4,0.4c0,0.2-0.2,0.4-0.4,0.4c-0.2,0-0.4-0.2-0.4-0.4
				C18.7,44.8,18.9,44.6,19.1,44.6z"/>
			<path class="st0" d="M21.4,44.5c0.3,0,0.5,0.2,0.5,0.6c0,0.3-0.2,0.6-0.5,0.6c-0.3,0-0.5-0.2-0.5-0.6
				C20.8,44.8,21.1,44.5,21.4,44.5z"/>
			<path class="st0" d="M23.7,44.4c0.4,0,0.6,0.3,0.6,0.7c0,0.4-0.3,0.7-0.6,0.7c-0.4,0-0.6-0.3-0.6-0.7
				C23,44.7,23.3,44.4,23.7,44.4z"/>
			<path class="st0" d="M25.9,44.3c0.4,0,0.7,0.3,0.7,0.7c0,0.4-0.3,0.7-0.7,0.7c-0.4,0-0.7-0.3-0.7-0.7
				C25.2,44.7,25.6,44.3,25.9,44.3z"/>
			<path class="st0" d="M28.2,44.3c0.4,0,0.8,0.4,0.8,0.8c0,0.4-0.3,0.8-0.8,0.8c-0.4,0-0.8-0.4-0.8-0.8
				C27.5,44.6,27.8,44.3,28.2,44.3z"/>
			<path class="st0" d="M30.5,44.3c0.4,0,0.8,0.4,0.8,0.8c0,0.4-0.4,0.8-0.8,0.8c-0.4,0-0.8-0.4-0.8-0.8
				C29.7,44.6,30.1,44.3,30.5,44.3z"/>
			<path class="st0" d="M32.8,44.3c0.4,0,0.8,0.4,0.8,0.8c0,0.4-0.3,0.8-0.8,0.8c-0.4,0-0.8-0.4-0.8-0.8
				C32,44.6,32.4,44.3,32.8,44.3z"/>
			<path class="st0" d="M35.1,44.3c0.4,0,0.7,0.3,0.7,0.8c0,0.4-0.3,0.8-0.7,0.8c-0.4,0-0.7-0.3-0.7-0.8
				C34.3,44.6,34.7,44.3,35.1,44.3z"/>
			<path class="st0" d="M37.4,44.4c0.4,0,0.7,0.3,0.7,0.7c0,0.4-0.3,0.7-0.7,0.7s-0.7-0.3-0.7-0.7C36.7,44.7,37,44.4,37.4,44.4z"/>
			<path class="st0" d="M39.6,44.5c0.3,0,0.6,0.3,0.6,0.6c0,0.3-0.3,0.6-0.6,0.6c-0.3,0-0.6-0.3-0.6-0.6
				C39.1,44.7,39.3,44.5,39.6,44.5z"/>
			<path class="st0" d="M41.9,44.6c0.3,0,0.5,0.2,0.5,0.5c0,0.3-0.2,0.5-0.5,0.5c-0.3,0-0.5-0.2-0.5-0.5
				C41.5,44.8,41.7,44.6,41.9,44.6z"/>
			<path class="st0" d="M44.2,44.7c0.2,0,0.3,0.2,0.3,0.3c0,0.2-0.1,0.3-0.3,0.3c-0.2,0-0.3-0.2-0.3-0.3
				C43.9,44.9,44,44.7,44.2,44.7z"/>
			<path class="st0" d="M46.5,44.9c0.1,0,0.2,0.1,0.2,0.2c0,0.1-0.1,0.2-0.2,0.2c-0.1,0-0.2-0.1-0.2-0.2
				C46.3,45,46.4,44.9,46.5,44.9z"/>
			<path class="st0" d="M48.8,45C48.8,45,48.8,45,48.8,45C48.8,45.1,48.8,45.1,48.8,45C48.8,45.1,48.7,45.1,48.8,45
				C48.7,45,48.8,45,48.8,45z"/>
			<path class="st0" d="M12.3,42.6c0.1,0,0.1,0,0.1,0.1c0,0.1,0,0.1-0.1,0.1s-0.1,0-0.1-0.1C12.2,42.7,12.2,42.6,12.3,42.6z"/>
			<path class="st0" d="M14.5,42.5c0.1,0,0.3,0.1,0.3,0.3c0,0.2-0.1,0.3-0.3,0.3c-0.1,0-0.3-0.1-0.3-0.3
				C14.3,42.6,14.4,42.5,14.5,42.5z"/>
			<path class="st0" d="M16.8,42.3c0.2,0,0.4,0.2,0.4,0.4c0,0.2-0.2,0.4-0.4,0.4c-0.2,0-0.4-0.2-0.4-0.4
				C16.4,42.5,16.6,42.3,16.8,42.3z"/>
			<path class="st0" d="M19.1,42.2c0.3,0,0.6,0.3,0.6,0.6c0,0.3-0.3,0.6-0.6,0.6c-0.3,0-0.6-0.3-0.6-0.6
				C18.5,42.4,18.8,42.2,19.1,42.2z"/>
			<path class="st0" d="M21.4,42c0.4,0,0.7,0.3,0.7,0.7c0,0.4-0.3,0.7-0.7,0.7c-0.4,0-0.7-0.3-0.7-0.7C20.7,42.3,21,42,21.4,42z"/>
			<path class="st0" d="M23.7,41.9c0.4,0,0.8,0.4,0.8,0.8s-0.4,0.8-0.8,0.8c-0.4,0-0.8-0.4-0.8-0.8S23.2,41.9,23.7,41.9z"/>
			<path class="st0" d="M25.9,41.8c0.5,0,0.9,0.4,0.9,0.9s-0.4,0.9-0.9,0.9c-0.5,0-0.9-0.4-0.9-0.9S25.4,41.8,25.9,41.8z"/>
			<path class="st0" d="M28.2,41.7c0.5,0,1,0.4,1,1c0,0.5-0.4,1-1,1c-0.5,0-1-0.4-1-1C27.3,42.2,27.7,41.7,28.2,41.7z"/>
			<path class="st0" d="M30.5,41.7c0.5,0,1,0.5,1,1c0,0.6-0.4,1-1,1c-0.5,0-1-0.5-1-1C29.5,42.2,30,41.7,30.5,41.7z"/>
			<path class="st0" d="M32.8,41.7c0.5,0,1,0.4,1,1c0,0.6-0.4,1-1,1c-0.5,0-1-0.4-1-1C31.8,42.2,32.3,41.7,32.8,41.7z"/>
			<path class="st0" d="M35.1,41.8c0.5,0,0.9,0.4,0.9,0.9c0,0.5-0.4,0.9-0.9,0.9c-0.5,0-0.9-0.4-0.9-0.9
				C34.1,42.2,34.6,41.8,35.1,41.8z"/>
			<path class="st0" d="M37.4,41.9c0.5,0,0.8,0.4,0.8,0.9c0,0.5-0.4,0.9-0.8,0.9c-0.5,0-0.8-0.4-0.8-0.9
				C36.5,42.3,36.9,41.9,37.4,41.9z"/>
			<path class="st0" d="M39.6,42c0.4,0,0.7,0.3,0.7,0.8c0,0.4-0.3,0.8-0.7,0.8c-0.4,0-0.7-0.3-0.7-0.8C38.9,42.3,39.2,42,39.6,42z"
				/>
			<path class="st0" d="M41.9,42.1c0.3,0,0.6,0.3,0.6,0.6c0,0.3-0.3,0.6-0.6,0.6c-0.3,0-0.6-0.3-0.6-0.6
				C41.3,42.4,41.6,42.1,41.9,42.1z"/>
			<path class="st0" d="M44.2,42.3c0.3,0,0.5,0.2,0.5,0.5c0,0.3-0.2,0.5-0.5,0.5c-0.3,0-0.5-0.2-0.5-0.5
				C43.7,42.5,43.9,42.3,44.2,42.3z"/>
			<path class="st0" d="M46.5,42.4c0.2,0,0.3,0.1,0.3,0.3c0,0.2-0.1,0.3-0.3,0.3c-0.2,0-0.3-0.1-0.3-0.3
				C46.2,42.6,46.3,42.4,46.5,42.4z"/>
			<path class="st0" d="M48.8,42.6c0.1,0,0.2,0.1,0.2,0.2c0,0.1-0.1,0.2-0.2,0.2c-0.1,0-0.2-0.1-0.2-0.2
				C48.6,42.6,48.7,42.6,48.8,42.6z"/>
			<path class="st0" d="M10,40.4C10,40.4,10,40.4,10,40.4C10,40.4,10,40.4,10,40.4C10,40.4,10,40.4,10,40.4C10,40.4,10,40.4,10,40.4
				z"/>
			<path class="st0" d="M12.3,40.2c0.1,0,0.2,0.1,0.2,0.2c0,0.1-0.1,0.2-0.2,0.2c-0.1,0-0.2-0.1-0.2-0.2
				C12.1,40.3,12.1,40.2,12.3,40.2z"/>
			<path class="st0" d="M14.5,40c0.2,0,0.4,0.2,0.4,0.4c0,0.2-0.2,0.4-0.4,0.4c-0.2,0-0.4-0.2-0.4-0.4C14.2,40.2,14.3,40,14.5,40z"
				/>
			<path class="st0" d="M16.8,39.8c0.3,0,0.5,0.2,0.5,0.6c0,0.3-0.2,0.6-0.5,0.6c-0.3,0-0.5-0.2-0.5-0.6
				C16.3,40.1,16.5,39.8,16.8,39.8z"/>
			<path class="st0" d="M19.1,39.7c0.4,0,0.7,0.3,0.7,0.7c0,0.4-0.3,0.7-0.7,0.7c-0.4,0-0.7-0.3-0.7-0.7
				C18.4,40,18.7,39.7,19.1,39.7z"/>
			<path class="st0" d="M21.4,39.5c0.5,0,0.8,0.4,0.8,0.9c0,0.5-0.4,0.9-0.8,0.9c-0.5,0-0.8-0.4-0.8-0.9
				C20.5,39.9,20.9,39.5,21.4,39.5z"/>
			<path class="st0" d="M23.7,39.4c0.5,0,1,0.4,1,1c0,0.6-0.4,1-1,1c-0.5,0-1-0.4-1-1C22.7,39.9,23.1,39.4,23.7,39.4z"/>
			<path class="st0" d="M25.9,39.3c0.6,0,1.1,0.5,1.1,1.1c0,0.6-0.5,1.1-1.1,1.1c-0.6,0-1.1-0.5-1.1-1.1
				C24.9,39.8,25.3,39.3,25.9,39.3z"/>
			<path class="st0" d="M28.2,39.2c0.6,0,1.2,0.5,1.2,1.2c0,0.7-0.5,1.2-1.2,1.2c-0.6,0-1.2-0.5-1.2-1.2
				C27.1,39.8,27.6,39.2,28.2,39.2z"/>
			<path class="st0" d="M30.5,39.2c0.7,0,1.2,0.5,1.2,1.2c0,0.7-0.5,1.2-1.2,1.2c-0.7,0-1.2-0.5-1.2-1.2
				C29.3,39.7,29.9,39.2,30.5,39.2z"/>
			<path class="st0" d="M32.8,39.2c0.6,0,1.2,0.5,1.2,1.2c0,0.7-0.5,1.2-1.2,1.2c-0.6,0-1.2-0.5-1.2-1.2
				C31.6,39.7,32.1,39.2,32.8,39.2z"/>
			<path class="st0" d="M35.1,39.3c0.6,0,1.1,0.5,1.1,1.1c0,0.6-0.5,1.1-1.1,1.1c-0.6,0-1.1-0.5-1.1-1.1
				C34,39.8,34.5,39.3,35.1,39.3z"/>
			<path class="st0" d="M37.4,39.4c0.6,0,1,0.5,1,1c0,0.6-0.5,1-1,1c-0.6,0-1-0.5-1-1C36.3,39.8,36.8,39.4,37.4,39.4z"/>
			<path class="st0" d="M39.6,39.5c0.5,0,0.9,0.4,0.9,0.9c0,0.5-0.4,0.9-0.9,0.9c-0.5,0-0.9-0.4-0.9-0.9
				C38.8,39.9,39.1,39.5,39.6,39.5z"/>
			<path class="st0" d="M41.9,39.6c0.4,0,0.7,0.3,0.7,0.8c0,0.4-0.3,0.8-0.7,0.8c-0.4,0-0.7-0.3-0.7-0.8
				C41.2,40,41.5,39.6,41.9,39.6z"/>
			<path class="st0" d="M44.2,39.8c0.3,0,0.6,0.3,0.6,0.6c0,0.3-0.3,0.6-0.6,0.6c-0.3,0-0.6-0.3-0.6-0.6
				C43.6,40.1,43.9,39.8,44.2,39.8z"/>
			<path class="st0" d="M46.5,40c0.2,0,0.4,0.2,0.4,0.4c0,0.2-0.2,0.4-0.4,0.4c-0.2,0-0.4-0.2-0.4-0.4C46.1,40.2,46.3,40,46.5,40z"
				/>
			<path class="st0" d="M48.8,40.1c0.1,0,0.3,0.1,0.3,0.3c0,0.1-0.1,0.3-0.3,0.3c-0.1,0-0.3-0.1-0.3-0.3
				C48.5,40.3,48.6,40.1,48.8,40.1z"/>
			<path class="st0" d="M51.1,40.3C51.1,40.3,51.1,40.4,51.1,40.3c0.1,0.1,0,0.2,0,0.2C51,40.5,51,40.4,51.1,40.3
				C51,40.4,51,40.3,51.1,40.3z"/>
			<path class="st0" d="M10,38C10,38,10.1,38,10,38c0.1,0.2,0.1,0.2,0,0.2C9.9,38.2,9.9,38.1,10,38C9.9,38,9.9,38,10,38z"/>
			<path class="st0" d="M12.3,37.8c0.2,0,0.3,0.1,0.3,0.3c0,0.2-0.1,0.3-0.3,0.3c-0.2,0-0.3-0.1-0.3-0.3
				C12,37.9,12.1,37.8,12.3,37.8z"/>
			<path class="st0" d="M14.5,37.6c0.3,0,0.5,0.2,0.5,0.5c0,0.3-0.2,0.5-0.5,0.5c-0.3,0-0.5-0.2-0.5-0.5
				C14.1,37.8,14.3,37.6,14.5,37.6z"/>
			<path class="st0" d="M16.8,37.4c0.4,0,0.6,0.3,0.6,0.7c0,0.4-0.3,0.7-0.6,0.7c-0.4,0-0.6-0.3-0.6-0.7
				C16.2,37.7,16.5,37.4,16.8,37.4z"/>
			<path class="st0" d="M19.1,37.2c0.4,0,0.8,0.4,0.8,0.8c0,0.5-0.4,0.8-0.8,0.8c-0.4,0-0.8-0.4-0.8-0.8
				C18.3,37.6,18.7,37.2,19.1,37.2z"/>
			<path class="st0" d="M21.4,37.1c0.5,0,1,0.4,1,1c0,0.6-0.4,1-1,1c-0.5,0-1-0.4-1-1C20.4,37.5,20.8,37.1,21.4,37.1z"/>
			<path class="st0" d="M23.7,36.9c0.6,0,1.1,0.5,1.1,1.1c0,0.6-0.5,1.1-1.1,1.1c-0.6,0-1.1-0.5-1.1-1.1
				C22.5,37.4,23,36.9,23.7,36.9z"/>
			<path class="st0" d="M25.9,36.8c0.7,0,1.3,0.6,1.3,1.3c0,0.7-0.6,1.3-1.3,1.3c-0.7,0-1.3-0.6-1.3-1.3
				C24.7,37.4,25.3,36.8,25.9,36.8z"/>
			<path class="st0" d="M28.2,36.7c0.7,0,1.3,0.6,1.3,1.4c0,0.8-0.6,1.4-1.3,1.4c-0.7,0-1.3-0.6-1.3-1.4
				C26.9,37.3,27.5,36.7,28.2,36.7z"/>
			<path class="st0" d="M30.5,36.7c0.8,0,1.4,0.6,1.4,1.4c0,0.8-0.6,1.4-1.4,1.4c-0.8,0-1.4-0.6-1.4-1.4
				C29.1,37.3,29.7,36.7,30.5,36.7z"/>
			<path class="st0" d="M32.8,36.7c0.8,0,1.4,0.6,1.4,1.4c0,0.8-0.6,1.4-1.4,1.4c-0.8,0-1.4-0.6-1.4-1.4
				C31.4,37.3,32,36.7,32.8,36.7z"/>
			<path class="st0" d="M35.1,36.8c0.7,0,1.3,0.6,1.3,1.3c0,0.7-0.6,1.3-1.3,1.3c-0.7,0-1.3-0.6-1.3-1.3
				C33.8,37.3,34.4,36.8,35.1,36.8z"/>
			<path class="st0" d="M37.4,36.9c0.6,0,1.2,0.5,1.2,1.2c0,0.7-0.5,1.2-1.2,1.2c-0.6,0-1.2-0.5-1.2-1.2
				C36.2,37.4,36.7,36.9,37.4,36.9z"/>
			<path class="st0" d="M39.6,37c0.6,0,1,0.5,1,1.1c0,0.6-0.5,1.1-1,1.1c-0.6,0-1-0.5-1-1.1C38.6,37.5,39.1,37,39.6,37z"/>
			<path class="st0" d="M41.9,37.2c0.5,0,0.9,0.4,0.9,0.9c0,0.5-0.4,0.9-0.9,0.9c-0.5,0-0.9-0.4-0.9-0.9
				C41.1,37.6,41.4,37.2,41.9,37.2z"/>
			<path class="st0" d="M44.2,37.4c0.4,0,0.7,0.3,0.7,0.7c0,0.4-0.3,0.7-0.7,0.7c-0.4,0-0.7-0.3-0.7-0.7
				C43.5,37.7,43.8,37.4,44.2,37.4z"/>
			<path class="st0" d="M46.5,37.5c0.3,0,0.5,0.2,0.5,0.5c0,0.3-0.2,0.5-0.5,0.5c-0.3,0-0.5-0.2-0.5-0.5
				C46,37.8,46.2,37.5,46.5,37.5z"/>
			<path class="st0" d="M48.8,37.7c0.2,0,0.3,0.2,0.3,0.3c0,0.2-0.2,0.3-0.3,0.3c-0.2,0-0.3-0.2-0.3-0.3
				C48.4,37.9,48.6,37.7,48.8,37.7z"/>
			<path class="st0" d="M51.1,37.9c0.1,0,0.2,0.1,0.2,0.2c0,0.1-0.1,0.2-0.2,0.2c-0.1,0-0.2-0.1-0.2-0.2C50.9,38,51,37.9,51.1,37.9z
				"/>
			<path class="st0" d="M10,35.6c0.1,0,0.1,0.1,0.1,0.1c0,0.1-0.1,0.1-0.1,0.1c-0.1,0-0.1-0.1-0.1-0.1C9.8,35.7,9.9,35.6,10,35.6z"
				/>
			<path class="st0" d="M12.3,35.4c0.2,0,0.3,0.2,0.3,0.3c0,0.2-0.2,0.3-0.3,0.3c-0.2,0-0.3-0.2-0.3-0.3
				C11.9,35.6,12.1,35.4,12.3,35.4z"/>
			<path class="st0" d="M14.5,35.2c0.3,0,0.5,0.2,0.5,0.5c0,0.3-0.2,0.5-0.5,0.5c-0.3,0-0.5-0.2-0.5-0.5
				C14,35.4,14.2,35.2,14.5,35.2z"/>
			<path class="st0" d="M16.8,35c0.4,0,0.7,0.3,0.7,0.7c0,0.4-0.3,0.7-0.7,0.7c-0.4,0-0.7-0.3-0.7-0.7C16.1,35.3,16.4,35,16.8,35z"
				/>
			<path class="st0" d="M19.1,34.8c0.5,0,0.9,0.4,0.9,0.9c0,0.5-0.4,0.9-0.9,0.9c-0.5,0-0.9-0.4-0.9-0.9
				C18.2,35.2,18.6,34.8,19.1,34.8z"/>
			<path class="st0" d="M21.4,34.6c0.6,0,1.1,0.5,1.1,1.1c0,0.6-0.5,1.1-1.1,1.1c-0.6,0-1.1-0.5-1.1-1.1
				C20.3,35.1,20.8,34.6,21.4,34.6z"/>
			<path class="st0" d="M23.7,34.5c0.7,0,1.3,0.6,1.3,1.3c0,0.7-0.6,1.3-1.3,1.3c-0.7,0-1.3-0.6-1.3-1.3C22.4,35,23,34.5,23.7,34.5z
				"/>
			<path class="st0" d="M25.9,34.3c0.8,0,1.4,0.6,1.4,1.4c0,0.8-0.6,1.4-1.4,1.4c-0.8,0-1.4-0.6-1.4-1.4
				C24.5,35,25.2,34.3,25.9,34.3z"/>
			<path class="st0" d="M28.2,34.3c0.8,0,1.4,0.6,1.4,1.4c0,0.8-0.6,1.4-1.4,1.4c-0.8,0-1.4-0.6-1.4-1.4
				C26.8,35,27.5,34.3,28.2,34.3z"/>
			<path class="st0" d="M30.5,34.3c0.8,0,1.4,0.6,1.4,1.4c0,0.8-0.6,1.4-1.4,1.4c-0.8,0-1.4-0.6-1.4-1.4
				C29.1,35,29.7,34.3,30.5,34.3z"/>
			<path class="st0" d="M32.8,34.3c0.8,0,1.4,0.6,1.4,1.4c0,0.8-0.6,1.4-1.4,1.4c-0.8,0-1.4-0.6-1.4-1.4C31.4,35,32,34.3,32.8,34.3z
				"/>
			<path class="st0" d="M35.1,34.3c0.8,0,1.4,0.6,1.4,1.4c0,0.8-0.6,1.4-1.4,1.4c-0.8,0-1.4-0.6-1.4-1.4
				C33.7,35,34.3,34.3,35.1,34.3z"/>
			<path class="st0" d="M37.4,34.4c0.7,0,1.3,0.6,1.3,1.3c0,0.7-0.6,1.3-1.3,1.3c-0.7,0-1.3-0.6-1.3-1.3
				C36.1,35,36.6,34.4,37.4,34.4z"/>
			<path class="st0" d="M39.6,34.6c0.6,0,1.1,0.5,1.1,1.2c0,0.6-0.5,1.2-1.1,1.2c-0.6,0-1.1-0.5-1.1-1.2
				C38.5,35.1,39,34.6,39.6,34.6z"/>
			<path class="st0" d="M41.9,34.8c0.5,0,1,0.4,1,1c0,0.5-0.4,1-1,1c-0.5,0-1-0.4-1-1C41,35.2,41.4,34.8,41.9,34.8z"/>
			<path class="st0" d="M44.2,35c0.4,0,0.8,0.4,0.8,0.8c0,0.4-0.3,0.8-0.8,0.8s-0.8-0.4-0.8-0.8C43.4,35.3,43.8,35,44.2,35z"/>
			<path class="st0" d="M46.5,35.1c0.3,0,0.6,0.3,0.6,0.6c0,0.3-0.3,0.6-0.6,0.6c-0.3,0-0.6-0.3-0.6-0.6
				C45.9,35.4,46.2,35.1,46.5,35.1z"/>
			<path class="st0" d="M48.8,35.3c0.2,0,0.4,0.2,0.4,0.4c0,0.2-0.2,0.4-0.4,0.4c-0.2,0-0.4-0.2-0.4-0.4
				C48.4,35.5,48.5,35.3,48.8,35.3z"/>
			<path class="st0" d="M51.1,35.5c0.1,0,0.2,0.1,0.2,0.2c0,0.1-0.1,0.2-0.2,0.2c-0.1,0-0.2-0.1-0.2-0.2
				C50.8,35.6,50.9,35.5,51.1,35.5z"/>
			<path class="st0" d="M53.3,35.7C53.3,35.7,53.4,35.7,53.3,35.7C53.4,35.8,53.3,35.8,53.3,35.7C53.3,35.8,53.3,35.8,53.3,35.7
				C53.3,35.7,53.3,35.7,53.3,35.7z"/>
			<path class="st0" d="M10,33.2c0.1,0,0.2,0.1,0.2,0.2c0,0.1-0.1,0.2-0.2,0.2c-0.1,0-0.2-0.1-0.2-0.2C9.8,33.3,9.9,33.2,10,33.2z"
				/>
			<path class="st0" d="M12.3,33c0.2,0,0.4,0.2,0.4,0.4c0,0.2-0.2,0.4-0.4,0.4c-0.2,0-0.4-0.2-0.4-0.4C11.9,33.2,12,33,12.3,33z"/>
			<path class="st0" d="M14.5,32.8c0.3,0,0.6,0.3,0.6,0.6c0,0.3-0.3,0.6-0.6,0.6c-0.3,0-0.6-0.3-0.6-0.6
				C14,33.1,14.2,32.8,14.5,32.8z"/>
			<path class="st0" d="M16.8,32.6c0.4,0,0.8,0.4,0.8,0.8c0,0.4-0.3,0.8-0.8,0.8c-0.4,0-0.8-0.4-0.8-0.8C16,33,16.4,32.6,16.8,32.6z
				"/>
			<path class="st0" d="M19.1,32.4c0.5,0,1,0.4,1,1c0,0.5-0.4,1-1,1c-0.5,0-1-0.4-1-1C18.1,32.9,18.6,32.4,19.1,32.4z"/>
			<path class="st0" d="M21.4,32.2c0.6,0,1.2,0.5,1.2,1.2c0,0.7-0.5,1.2-1.2,1.2c-0.6,0-1.2-0.5-1.2-1.2
				C20.2,32.8,20.7,32.2,21.4,32.2z"/>
			<path class="st0" d="M23.7,32c0.7,0,1.3,0.6,1.3,1.4c0,0.8-0.6,1.4-1.3,1.4c-0.7,0-1.3-0.6-1.3-1.4C22.3,32.7,22.9,32,23.7,32z"
				/>
			<path class="st0" d="M25.9,32c0.8,0,1.4,0.6,1.4,1.4c0,0.8-0.6,1.4-1.4,1.4c-0.8,0-1.4-0.6-1.4-1.4C24.5,32.6,25.2,32,25.9,32z"
				/>
			<path class="st0" d="M28.2,32c0.8,0,1.4,0.6,1.4,1.4c0,0.8-0.6,1.4-1.4,1.4c-0.8,0-1.4-0.6-1.4-1.4C26.8,32.6,27.5,32,28.2,32z"
				/>
			<path class="st0" d="M30.5,32c0.8,0,1.4,0.6,1.4,1.4c0,0.8-0.6,1.4-1.4,1.4c-0.8,0-1.4-0.6-1.4-1.4C29.1,32.6,29.7,32,30.5,32z"
				/>
			<path class="st0" d="M32.8,32c0.8,0,1.4,0.6,1.4,1.4c0,0.8-0.6,1.4-1.4,1.4c-0.8,0-1.4-0.6-1.4-1.4C31.4,32.6,32,32,32.8,32z"/>
			<path class="st0" d="M35.1,32c0.8,0,1.4,0.6,1.4,1.4c0,0.8-0.6,1.4-1.4,1.4c-0.8,0-1.4-0.6-1.4-1.4C33.7,32.6,34.3,32,35.1,32z"
				/>
			<path class="st0" d="M37.4,32c0.8,0,1.4,0.6,1.4,1.4c0,0.8-0.6,1.4-1.4,1.4c-0.8,0-1.4-0.6-1.4-1.4C35.9,32.6,36.6,32,37.4,32z"
				/>
			<path class="st0" d="M39.6,32.2c0.7,0,1.2,0.6,1.2,1.2c0,0.7-0.5,1.2-1.2,1.2c-0.7,0-1.2-0.6-1.2-1.2
				C38.4,32.7,39,32.2,39.6,32.2z"/>
			<path class="st0" d="M41.9,32.4c0.6,0,1,0.5,1,1.1c0,0.6-0.5,1.1-1,1.1c-0.6,0-1-0.5-1-1.1C40.9,32.8,41.4,32.4,41.9,32.4z"/>
			<path class="st0" d="M44.2,32.6c0.5,0,0.8,0.4,0.8,0.9c0,0.5-0.4,0.9-0.8,0.9c-0.5,0-0.8-0.4-0.8-0.9
				C43.4,32.9,43.7,32.6,44.2,32.6z"/>
			<path class="st0" d="M46.5,32.8c0.4,0,0.6,0.3,0.6,0.7s-0.3,0.7-0.6,0.7c-0.4,0-0.6-0.3-0.6-0.7S46.1,32.8,46.5,32.8z"/>
			<path class="st0" d="M48.8,33c0.2,0,0.4,0.2,0.4,0.5c0,0.3-0.2,0.5-0.4,0.5c-0.2,0-0.4-0.2-0.4-0.5C48.3,33.2,48.5,33,48.8,33z"
				/>
			<path class="st0" d="M51.1,33.2c0.1,0,0.3,0.1,0.3,0.3c0,0.1-0.1,0.3-0.3,0.3c-0.1,0-0.3-0.1-0.3-0.3
				C50.8,33.3,50.9,33.2,51.1,33.2z"/>
			<path class="st0" d="M53.3,33.4C53.4,33.4,53.4,33.4,53.3,33.4c0.1,0.1,0,0.1,0,0.1C53.3,33.5,53.3,33.4,53.3,33.4
				C53.3,33.4,53.3,33.4,53.3,33.4z"/>
			<path class="st0" d="M10,30.9c0.1,0,0.2,0.1,0.2,0.2c0,0.1-0.1,0.2-0.2,0.2c-0.1,0-0.2-0.1-0.2-0.2C9.8,31,9.9,30.9,10,30.9z"/>
			<path class="st0" d="M12.3,30.7c0.2,0,0.4,0.2,0.4,0.4c0,0.2-0.2,0.4-0.4,0.4c-0.2,0-0.4-0.2-0.4-0.4
				C11.9,30.9,12,30.7,12.3,30.7z"/>
			<path class="st0" d="M14.5,30.5c0.3,0,0.6,0.3,0.6,0.6c0,0.3-0.3,0.6-0.6,0.6c-0.3,0-0.6-0.3-0.6-0.6
				C13.9,30.8,14.2,30.5,14.5,30.5z"/>
			<path class="st0" d="M16.8,30.3c0.4,0,0.8,0.4,0.8,0.8c0,0.4-0.4,0.8-0.8,0.8c-0.4,0-0.8-0.4-0.8-0.8
				C16,30.6,16.4,30.3,16.8,30.3z"/>
			<path class="st0" d="M19.1,30.1c0.5,0,1,0.5,1,1c0,0.6-0.4,1-1,1c-0.5,0-1-0.5-1-1C18.1,30.5,18.6,30.1,19.1,30.1z"/>
			<path class="st0" d="M21.4,29.9c0.7,0,1.2,0.5,1.2,1.2c0,0.7-0.5,1.2-1.2,1.2c-0.7,0-1.2-0.5-1.2-1.2
				C20.2,30.4,20.7,29.9,21.4,29.9z"/>
			<path class="st0" d="M23.7,29.7c0.8,0,1.4,0.6,1.4,1.4c0,0.8-0.6,1.4-1.4,1.4c-0.8,0-1.4-0.6-1.4-1.4
				C22.3,30.3,22.9,29.7,23.7,29.7z"/>
			<path class="st0" d="M25.9,29.6c0.8,0,1.4,0.6,1.4,1.4c0,0.8-0.6,1.4-1.4,1.4c-0.8,0-1.4-0.6-1.4-1.4
				C24.5,30.3,25.2,29.6,25.9,29.6z"/>
			<path class="st0" d="M28.2,29.6c0.8,0,1.4,0.6,1.4,1.4c0,0.8-0.6,1.4-1.4,1.4c-0.8,0-1.4-0.6-1.4-1.4
				C26.8,30.3,27.5,29.6,28.2,29.6z"/>
			<path class="st0" d="M30.5,29.6c0.8,0,1.4,0.6,1.4,1.4c0,0.8-0.6,1.4-1.4,1.4c-0.8,0-1.4-0.6-1.4-1.4
				C29.1,30.3,29.7,29.6,30.5,29.6z"/>
			<path class="st0" d="M32.8,29.6c0.8,0,1.4,0.6,1.4,1.4c0,0.8-0.6,1.4-1.4,1.4c-0.8,0-1.4-0.6-1.4-1.4
				C31.4,30.3,32,29.6,32.8,29.6z"/>
			<path class="st0" d="M35.1,29.6c0.8,0,1.4,0.6,1.4,1.4c0,0.8-0.6,1.4-1.4,1.4c-0.8,0-1.4-0.6-1.4-1.4
				C33.7,30.3,34.3,29.6,35.1,29.6z"/>
			<path class="st0" d="M37.4,29.6c0.8,0,1.4,0.6,1.4,1.4c0,0.8-0.6,1.4-1.4,1.4c-0.8,0-1.4-0.6-1.4-1.4
				C35.9,30.3,36.6,29.6,37.4,29.6z"/>
			<path class="st0" d="M39.6,29.8c0.7,0,1.3,0.6,1.3,1.3c0,0.7-0.6,1.3-1.3,1.3c-0.7,0-1.3-0.6-1.3-1.3
				C38.4,30.4,38.9,29.8,39.6,29.8z"/>
			<path class="st0" d="M41.9,30c0.6,0,1.1,0.5,1.1,1.1s-0.5,1.1-1.1,1.1c-0.6,0-1.1-0.5-1.1-1.1S41.3,30,41.9,30z"/>
			<path class="st0" d="M44.2,30.2c0.5,0,0.9,0.4,0.9,0.9c0,0.5-0.4,0.9-0.9,0.9c-0.5,0-0.9-0.4-0.9-0.9
				C43.3,30.6,43.7,30.2,44.2,30.2z"/>
			<path class="st0" d="M46.5,30.4c0.4,0,0.7,0.3,0.7,0.7c0,0.4-0.3,0.7-0.7,0.7c-0.4,0-0.7-0.3-0.7-0.7
				C45.8,30.7,46.1,30.4,46.5,30.4z"/>
			<path class="st0" d="M48.8,30.6c0.3,0,0.5,0.2,0.5,0.5c0,0.3-0.2,0.5-0.5,0.5c-0.3,0-0.5-0.2-0.5-0.5
				C48.3,30.8,48.5,30.6,48.8,30.6z"/>
			<path class="st0" d="M51.1,30.8c0.1,0,0.3,0.1,0.3,0.3c0,0.1-0.1,0.3-0.3,0.3c-0.1,0-0.3-0.1-0.3-0.3
				C50.8,30.9,50.9,30.8,51.1,30.8z"/>
			<path class="st0" d="M53.3,31C53.4,31,53.4,31,53.3,31c0.1,0.1,0,0.1,0,0.1C53.3,31.2,53.3,31.1,53.3,31C53.3,31,53.3,31,53.3,31
				z"/>
			<path class="st0" d="M10,28.6c0.1,0,0.2,0.1,0.2,0.2c0,0.1-0.1,0.2-0.2,0.2c-0.1,0-0.2-0.1-0.2-0.2C9.8,28.6,9.9,28.6,10,28.6z"
				/>
			<path class="st0" d="M12.3,28.4c0.2,0,0.4,0.2,0.4,0.4c0,0.2-0.2,0.4-0.4,0.4c-0.2,0-0.4-0.2-0.4-0.4
				C11.9,28.5,12,28.4,12.3,28.4z"/>
			<path class="st0" d="M14.5,28.2c0.3,0,0.6,0.3,0.6,0.6c0,0.3-0.3,0.6-0.6,0.6c-0.3,0-0.6-0.3-0.6-0.6
				C14,28.4,14.2,28.2,14.5,28.2z"/>
			<path class="st0" d="M16.8,28c0.4,0,0.8,0.4,0.8,0.8c0,0.4-0.3,0.8-0.8,0.8c-0.4,0-0.8-0.4-0.8-0.8C16,28.3,16.4,28,16.8,28z"/>
			<path class="st0" d="M19.1,27.8c0.5,0,1,0.4,1,1c0,0.6-0.4,1-1,1c-0.5,0-1-0.4-1-1C18.1,28.2,18.6,27.8,19.1,27.8z"/>
			<ellipse class="st0" cx="21.4" cy="28.8" rx="1.2" ry="1.2"/>
			<path class="st0" d="M23.7,27.4c0.8,0,1.4,0.6,1.4,1.4c0,0.8-0.6,1.4-1.4,1.4c-0.8,0-1.4-0.6-1.4-1.4
				C22.3,28,22.9,27.4,23.7,27.4z"/>
			<path class="st0" d="M25.9,27.3c0.8,0,1.4,0.6,1.4,1.4c0,0.8-0.6,1.4-1.4,1.4c-0.8,0-1.4-0.6-1.4-1.4
				C24.5,28,25.2,27.3,25.9,27.3z"/>
			<path class="st0" d="M28.2,27.3c0.8,0,1.4,0.6,1.4,1.4c0,0.8-0.6,1.4-1.4,1.4c-0.8,0-1.4-0.6-1.4-1.4
				C26.8,28,27.5,27.3,28.2,27.3z"/>
			<path class="st0" d="M30.5,27.3c0.8,0,1.4,0.6,1.4,1.4c0,0.8-0.6,1.4-1.4,1.4c-0.8,0-1.4-0.6-1.4-1.4
				C29.1,28,29.7,27.3,30.5,27.3z"/>
			<path class="st0" d="M32.8,27.3c0.8,0,1.4,0.6,1.4,1.4c0,0.8-0.6,1.4-1.4,1.4c-0.8,0-1.4-0.6-1.4-1.4C31.4,28,32,27.3,32.8,27.3z
				"/>
			<path class="st0" d="M35.1,27.3c0.8,0,1.4,0.6,1.4,1.4c0,0.8-0.6,1.4-1.4,1.4c-0.8,0-1.4-0.6-1.4-1.4
				C33.7,28,34.3,27.3,35.1,27.3z"/>
			<path class="st0" d="M37.4,27.3c0.8,0,1.4,0.6,1.4,1.4c0,0.8-0.6,1.4-1.4,1.4c-0.8,0-1.4-0.6-1.4-1.4
				C35.9,28,36.6,27.3,37.4,27.3z"/>
			<path class="st0" d="M39.6,27.5c0.7,0,1.2,0.6,1.2,1.3c0,0.7-0.6,1.3-1.2,1.3c-0.7,0-1.2-0.6-1.2-1.3
				C38.4,28.1,39,27.5,39.6,27.5z"/>
			<path class="st0" d="M41.9,27.7c0.6,0,1,0.5,1,1.1c0,0.6-0.5,1.1-1,1.1c-0.6,0-1-0.5-1-1.1C40.9,28.2,41.3,27.7,41.9,27.7z"/>
			<path class="st0" d="M44.2,27.9c0.5,0,0.8,0.4,0.8,0.9c0,0.5-0.4,0.9-0.8,0.9c-0.5,0-0.8-0.4-0.8-0.9
				C43.4,28.3,43.7,27.9,44.2,27.9z"/>
			<path class="st0" d="M46.5,28.1c0.4,0,0.7,0.3,0.7,0.7c0,0.4-0.3,0.7-0.7,0.7c-0.4,0-0.7-0.3-0.7-0.7
				C45.8,28.4,46.1,28.1,46.5,28.1z"/>
			<path class="st0" d="M48.8,28.3c0.3,0,0.5,0.2,0.5,0.5c0,0.3-0.2,0.5-0.5,0.5c-0.3,0-0.5-0.2-0.5-0.5
				C48.3,28.5,48.5,28.3,48.8,28.3z"/>
			<path class="st0" d="M51.1,28.5c0.1,0,0.3,0.1,0.3,0.3c0,0.1-0.1,0.3-0.3,0.3c-0.1,0-0.3-0.1-0.3-0.3
				C50.8,28.6,50.9,28.5,51.1,28.5z"/>
			<path class="st0" d="M53.3,28.7C53.4,28.7,53.4,28.7,53.3,28.7c0.1,0.1,0,0.1,0,0.1C53.3,28.8,53.3,28.8,53.3,28.7
				C53.3,28.7,53.3,28.7,53.3,28.7z"/>
			<path class="st0" d="M10,26.3c0.1,0,0.2,0.1,0.2,0.2c0,0.1-0.1,0.2-0.2,0.2c-0.1,0-0.2-0.1-0.2-0.2C9.8,26.3,9.9,26.3,10,26.3z"
				/>
			<path class="st0" d="M12.3,26.1c0.2,0,0.4,0.2,0.4,0.4c0,0.2-0.2,0.4-0.4,0.4c-0.2,0-0.4-0.2-0.4-0.4
				C11.9,26.2,12.1,26.1,12.3,26.1z"/>
			<path class="st0" d="M14.5,25.9c0.3,0,0.6,0.3,0.6,0.6c0,0.3-0.2,0.6-0.6,0.6c-0.3,0-0.6-0.3-0.6-0.6
				C14,26.1,14.2,25.9,14.5,25.9z"/>
			<path class="st0" d="M16.8,25.7c0.4,0,0.7,0.3,0.7,0.8c0,0.4-0.3,0.8-0.7,0.8c-0.4,0-0.7-0.3-0.7-0.8
				C16.1,26,16.4,25.7,16.8,25.7z"/>
			<path class="st0" d="M19.1,25.5c0.5,0,0.9,0.4,0.9,0.9c0,0.5-0.4,0.9-0.9,0.9c-0.5,0-0.9-0.4-0.9-0.9
				C18.2,25.9,18.6,25.5,19.1,25.5z"/>
			<path class="st0" d="M21.4,25.3c0.6,0,1.1,0.5,1.1,1.1c0,0.6-0.5,1.1-1.1,1.1c-0.6,0-1.1-0.5-1.1-1.1
				C20.3,25.8,20.8,25.3,21.4,25.3z"/>
			<path class="st0" d="M23.7,25.1c0.7,0,1.3,0.6,1.3,1.3c0,0.7-0.6,1.3-1.3,1.3c-0.7,0-1.3-0.6-1.3-1.3
				C22.4,25.7,23,25.1,23.7,25.1z"/>
			<path class="st0" d="M25.9,25c0.8,0,1.4,0.6,1.4,1.4c0,0.8-0.6,1.4-1.4,1.4c-0.8,0-1.4-0.6-1.4-1.4C24.5,25.6,25.2,25,25.9,25z"
				/>
			<path class="st0" d="M28.2,25c0.8,0,1.4,0.6,1.4,1.4c0,0.8-0.6,1.4-1.4,1.4c-0.8,0-1.4-0.6-1.4-1.4C26.8,25.6,27.5,25,28.2,25z"
				/>
			<path class="st0" d="M30.5,25c0.8,0,1.4,0.6,1.4,1.4c0,0.8-0.6,1.4-1.4,1.4c-0.8,0-1.4-0.6-1.4-1.4C29.1,25.6,29.7,25,30.5,25z"
				/>
			<path class="st0" d="M32.8,25c0.8,0,1.4,0.6,1.4,1.4c0,0.8-0.6,1.4-1.4,1.4c-0.8,0-1.4-0.6-1.4-1.4C31.4,25.6,32,25,32.8,25z"/>
			<path class="st0" d="M35.1,25c0.8,0,1.4,0.6,1.4,1.4c0,0.8-0.6,1.4-1.4,1.4c-0.8,0-1.4-0.6-1.4-1.4C33.7,25.6,34.3,25,35.1,25z"
				/>
			<path class="st0" d="M37.4,25.1c0.7,0,1.3,0.6,1.3,1.4c0,0.8-0.6,1.4-1.3,1.4c-0.7,0-1.3-0.6-1.3-1.4
				C36,25.7,36.6,25.1,37.4,25.1z"/>
			<path class="st0" d="M39.6,25.2c0.6,0,1.2,0.5,1.2,1.2c0,0.7-0.5,1.2-1.2,1.2c-0.6,0-1.2-0.5-1.2-1.2
				C38.5,25.8,39,25.2,39.6,25.2z"/>
			<path class="st0" d="M41.9,25.4c0.5,0,1,0.5,1,1c0,0.6-0.4,1-1,1c-0.5,0-1-0.5-1-1C40.9,25.9,41.4,25.4,41.9,25.4z"/>
			<path class="st0" d="M44.2,25.6c0.4,0,0.8,0.4,0.8,0.8c0,0.5-0.4,0.8-0.8,0.8c-0.4,0-0.8-0.4-0.8-0.8
				C43.4,26,43.8,25.6,44.2,25.6z"/>
			<path class="st0" d="M46.5,25.8c0.3,0,0.6,0.3,0.6,0.6c0,0.3-0.3,0.6-0.6,0.6c-0.3,0-0.6-0.3-0.6-0.6
				C45.9,26.1,46.2,25.8,46.5,25.8z"/>
			<path class="st0" d="M48.8,26c0.2,0,0.4,0.2,0.4,0.4c0,0.2-0.2,0.4-0.4,0.4c-0.2,0-0.4-0.2-0.4-0.4C48.3,26.2,48.5,26,48.8,26z"
				/>
			<path class="st0" d="M51.1,26.2c0.1,0,0.2,0.1,0.2,0.2c0,0.1-0.1,0.2-0.2,0.2c-0.1,0-0.2-0.1-0.2-0.2
				C50.8,26.3,50.9,26.2,51.1,26.2z"/>
			<path class="st0" d="M53.3,26.4C53.4,26.4,53.4,26.4,53.3,26.4C53.4,26.4,53.4,26.5,53.3,26.4C53.3,26.5,53.3,26.4,53.3,26.4
				C53.3,26.4,53.3,26.4,53.3,26.4z"/>
			<path class="st0" d="M10,24c0.1,0,0.1,0.1,0.1,0.1c0,0.1-0.1,0.1-0.1,0.1c-0.1,0-0.1-0.1-0.1-0.1C9.9,24,9.9,24,10,24z"/>
			<path class="st0" d="M12.3,23.8c0.2,0,0.3,0.1,0.3,0.3c0,0.2-0.1,0.3-0.3,0.3c-0.2,0-0.3-0.1-0.3-0.3
				C12,23.9,12.1,23.8,12.3,23.8z"/>
			<path class="st0" d="M14.5,23.6c0.3,0,0.5,0.2,0.5,0.5c0,0.3-0.2,0.5-0.5,0.5c-0.3,0-0.5-0.2-0.5-0.5
				C14,23.8,14.3,23.6,14.5,23.6z"/>
			<path class="st0" d="M16.8,23.4c0.4,0,0.7,0.3,0.7,0.7c0,0.4-0.3,0.7-0.7,0.7c-0.4,0-0.7-0.3-0.7-0.7
				C16.1,23.7,16.4,23.4,16.8,23.4z"/>
			<path class="st0" d="M19.1,23.2c0.5,0,0.8,0.4,0.8,0.9c0,0.5-0.4,0.9-0.8,0.9c-0.5,0-0.8-0.4-0.8-0.9
				C18.3,23.6,18.6,23.2,19.1,23.2z"/>
			<path class="st0" d="M21.4,23.1c0.6,0,1,0.5,1,1c0,0.6-0.5,1-1,1c-0.6,0-1-0.5-1-1C20.4,23.5,20.8,23.1,21.4,23.1z"/>
			<ellipse class="st0" cx="23.7" cy="24.1" rx="1.2" ry="1.2"/>
			<path class="st0" d="M25.9,22.8c0.7,0,1.3,0.6,1.3,1.3c0,0.7-0.6,1.3-1.3,1.3c-0.7,0-1.3-0.6-1.3-1.3
				C24.6,23.4,25.2,22.8,25.9,22.8z"/>
			<path class="st0" d="M28.2,22.7c0.8,0,1.4,0.6,1.4,1.4c0,0.8-0.6,1.4-1.4,1.4c-0.8,0-1.4-0.6-1.4-1.4
				C26.8,23.3,27.5,22.7,28.2,22.7z"/>
			<path class="st0" d="M30.5,22.7c0.8,0,1.4,0.6,1.4,1.4c0,0.8-0.6,1.4-1.4,1.4c-0.8,0-1.4-0.6-1.4-1.4
				C29.1,23.3,29.7,22.7,30.5,22.7z"/>
			<path class="st0" d="M32.8,22.7c0.8,0,1.4,0.6,1.4,1.4c0,0.8-0.6,1.4-1.4,1.4c-0.8,0-1.4-0.6-1.4-1.4
				C31.4,23.3,32,22.7,32.8,22.7z"/>
			<path class="st0" d="M35.1,22.7c0.7,0,1.3,0.6,1.3,1.4c0,0.8-0.6,1.4-1.3,1.4c-0.7,0-1.3-0.6-1.3-1.4
				C33.7,23.3,34.3,22.7,35.1,22.7z"/>
			<path class="st0" d="M37.4,22.9c0.7,0,1.2,0.6,1.2,1.2c0,0.7-0.5,1.2-1.2,1.2c-0.7,0-1.2-0.6-1.2-1.2
				C36.1,23.4,36.7,22.9,37.4,22.9z"/>
			<path class="st0" d="M39.6,23c0.6,0,1.1,0.5,1.1,1.1c0,0.6-0.5,1.1-1.1,1.1c-0.6,0-1.1-0.5-1.1-1.1C38.6,23.5,39.1,23,39.6,23z"
				/>
			<path class="st0" d="M41.9,23.2c0.5,0,0.9,0.4,0.9,0.9c0,0.5-0.4,0.9-0.9,0.9c-0.5,0-0.9-0.4-0.9-0.9
				C41,23.6,41.4,23.2,41.9,23.2z"/>
			<path class="st0" d="M44.2,23.4c0.4,0,0.7,0.3,0.7,0.7c0,0.4-0.3,0.7-0.7,0.7c-0.4,0-0.7-0.3-0.7-0.7
				C43.5,23.7,43.8,23.4,44.2,23.4z"/>
			<path class="st0" d="M46.5,23.5c0.3,0,0.6,0.3,0.6,0.6c0,0.3-0.2,0.6-0.6,0.6c-0.3,0-0.6-0.3-0.6-0.6
				C45.9,23.8,46.2,23.5,46.5,23.5z"/>
			<path class="st0" d="M48.8,23.7c0.2,0,0.4,0.2,0.4,0.4c0,0.2-0.2,0.4-0.4,0.4c-0.2,0-0.4-0.2-0.4-0.4
				C48.4,23.9,48.6,23.7,48.8,23.7z"/>
			<path class="st0" d="M51.1,23.9c0.1,0,0.2,0.1,0.2,0.2c0,0.1-0.1,0.2-0.2,0.2c-0.1,0-0.2-0.1-0.2-0.2C50.9,24,51,23.9,51.1,23.9z
				"/>
			<path class="st0" d="M10,21.7C10,21.7,10,21.7,10,21.7C10,21.8,10,21.8,10,21.7C9.9,21.8,9.9,21.8,10,21.7
				C9.9,21.7,9.9,21.7,10,21.7z"/>
			<path class="st0" d="M12.3,21.5c0.1,0,0.2,0.1,0.2,0.2c0,0.1-0.1,0.2-0.2,0.2S12,21.9,12,21.8C12,21.6,12.1,21.5,12.3,21.5z"/>
			<path class="st0" d="M14.5,21.4c0.2,0,0.4,0.2,0.4,0.4c0,0.2-0.2,0.4-0.4,0.4c-0.2,0-0.4-0.2-0.4-0.4
				C14.1,21.5,14.3,21.4,14.5,21.4z"/>
			<path class="st0" d="M16.8,21.2c0.3,0,0.6,0.3,0.6,0.6c0,0.3-0.3,0.6-0.6,0.6c-0.3,0-0.6-0.3-0.6-0.6
				C16.2,21.4,16.5,21.2,16.8,21.2z"/>
			<path class="st0" d="M19.1,21c0.4,0,0.7,0.3,0.7,0.8c0,0.4-0.3,0.8-0.7,0.8c-0.4,0-0.7-0.3-0.7-0.8C18.4,21.4,18.7,21,19.1,21z"
				/>
			<path class="st0" d="M21.4,20.9c0.5,0,0.9,0.4,0.9,0.9c0,0.5-0.4,0.9-0.9,0.9c-0.5,0-0.9-0.4-0.9-0.9
				C20.5,21.3,20.9,20.9,21.4,20.9z"/>
			<path class="st0" d="M23.7,20.7c0.6,0,1,0.5,1,1.1c0,0.6-0.5,1.1-1,1.1c-0.6,0-1-0.5-1-1.1C22.6,21.2,23.1,20.7,23.7,20.7z"/>
			<path class="st0" d="M25.9,20.6c0.6,0,1.1,0.5,1.1,1.2c0,0.6-0.5,1.2-1.1,1.2c-0.6,0-1.1-0.5-1.1-1.2
				C24.8,21.1,25.3,20.6,25.9,20.6z"/>
			<path class="st0" d="M28.2,20.5c0.7,0,1.2,0.6,1.2,1.2S28.9,23,28.2,23c-0.7,0-1.2-0.6-1.2-1.2S27.6,20.5,28.2,20.5z"/>
			<path class="st0" d="M30.5,20.5c0.7,0,1.3,0.6,1.3,1.3c0,0.7-0.6,1.3-1.3,1.3c-0.7,0-1.3-0.6-1.3-1.3
				C29.3,21.1,29.8,20.5,30.5,20.5z"/>
			<path class="st0" d="M32.8,20.5c0.7,0,1.2,0.6,1.2,1.3c0,0.7-0.6,1.3-1.2,1.3c-0.7,0-1.2-0.6-1.2-1.3
				C31.6,21.1,32.1,20.5,32.8,20.5z"/>
			<path class="st0" d="M35.1,20.6c0.6,0,1.2,0.5,1.2,1.2c0,0.7-0.5,1.2-1.2,1.2c-0.6,0-1.2-0.5-1.2-1.2
				C33.9,21.1,34.4,20.6,35.1,20.6z"/>
			<path class="st0" d="M37.4,20.7c0.6,0,1.1,0.5,1.1,1.1c0,0.6-0.5,1.1-1.1,1.1c-0.6,0-1.1-0.5-1.1-1.1
				C36.3,21.2,36.8,20.7,37.4,20.7z"/>
			<path class="st0" d="M39.6,20.8c0.5,0,0.9,0.4,0.9,1c0,0.5-0.4,1-0.9,1c-0.5,0-0.9-0.4-0.9-1C38.7,21.2,39.1,20.8,39.6,20.8z"/>
			<path class="st0" d="M41.9,21c0.4,0,0.8,0.4,0.8,0.8c0,0.4-0.4,0.8-0.8,0.8c-0.4,0-0.8-0.4-0.8-0.8C41.1,21.3,41.5,21,41.9,21z"
				/>
			<path class="st0" d="M44.2,21.1c0.3,0,0.6,0.3,0.6,0.6c0,0.4-0.3,0.6-0.6,0.6c-0.4,0-0.6-0.3-0.6-0.6
				C43.6,21.4,43.9,21.1,44.2,21.1z"/>
			<path class="st0" d="M46.5,21.3c0.3,0,0.5,0.2,0.5,0.5c0,0.3-0.2,0.5-0.5,0.5c-0.3,0-0.5-0.2-0.5-0.5
				C46,21.5,46.2,21.3,46.5,21.3z"/>
			<path class="st0" d="M48.8,21.5c0.2,0,0.3,0.1,0.3,0.3c0,0.2-0.1,0.3-0.3,0.3c-0.2,0-0.3-0.1-0.3-0.3
				C48.5,21.6,48.6,21.5,48.8,21.5z"/>
			<path class="st0" d="M51.1,21.7c0.1,0,0.1,0,0.1,0.1c0,0.1,0,0.1-0.1,0.1c-0.1,0-0.1,0-0.1-0.1C50.9,21.7,51,21.7,51.1,21.7z"/>
			<path class="st0" d="M12.3,19.3c0.1,0,0.1,0.1,0.1,0.1c0,0.1-0.1,0.1-0.1,0.1c-0.1,0-0.1-0.1-0.1-0.1
				C12.1,19.4,12.2,19.3,12.3,19.3z"/>
			<path class="st0" d="M14.5,19.1c0.2,0,0.3,0.1,0.3,0.3c0,0.2-0.1,0.3-0.3,0.3c-0.2,0-0.3-0.1-0.3-0.3
				C14.2,19.3,14.4,19.1,14.5,19.1z"/>
			<path class="st0" d="M16.8,19c0.3,0,0.5,0.2,0.5,0.5c0,0.3-0.2,0.5-0.5,0.5c-0.3,0-0.5-0.2-0.5-0.5C16.4,19.2,16.6,19,16.8,19z"
				/>
			<path class="st0" d="M19.1,18.8c0.3,0,0.6,0.3,0.6,0.6c0,0.3-0.3,0.6-0.6,0.6c-0.3,0-0.6-0.3-0.6-0.6
				C18.5,19.1,18.8,18.8,19.1,18.8z"/>
			<path class="st0" d="M21.4,18.7c0.4,0,0.7,0.3,0.7,0.8c0,0.4-0.3,0.8-0.7,0.8c-0.4,0-0.7-0.3-0.7-0.8C20.6,19,21,18.7,21.4,18.7z
				"/>
			<path class="st0" d="M23.7,18.6c0.5,0,0.9,0.4,0.9,0.9c0,0.5-0.4,0.9-0.9,0.9c-0.5,0-0.9-0.4-0.9-0.9
				C22.8,19,23.2,18.6,23.7,18.6z"/>
			<path class="st0" d="M25.9,18.5c0.5,0,1,0.4,1,1c0,0.5-0.4,1-1,1c-0.5,0-1-0.4-1-1C25,18.9,25.4,18.5,25.9,18.5z"/>
			<path class="st0" d="M28.2,18.4c0.6,0,1,0.5,1,1.1c0,0.6-0.5,1.1-1,1.1c-0.6,0-1-0.5-1-1.1C27.2,18.9,27.7,18.4,28.2,18.4z"/>
			<path class="st0" d="M30.5,18.4c0.6,0,1.1,0.5,1.1,1.1c0,0.6-0.5,1.1-1.1,1.1c-0.6,0-1.1-0.5-1.1-1.1
				C29.5,18.8,29.9,18.4,30.5,18.4z"/>
			<path class="st0" d="M32.8,18.4c0.6,0,1,0.5,1,1.1c0,0.6-0.5,1.1-1,1.1c-0.6,0-1-0.5-1-1.1C31.8,18.9,32.2,18.4,32.8,18.4z"/>
			<path class="st0" d="M35.1,18.4c0.5,0,1,0.5,1,1c0,0.6-0.4,1-1,1c-0.5,0-1-0.5-1-1C34.1,18.9,34.5,18.4,35.1,18.4z"/>
			<path class="st0" d="M37.4,18.5c0.5,0,0.9,0.4,0.9,0.9c0,0.5-0.4,0.9-0.9,0.9c-0.5,0-0.9-0.4-0.9-0.9
				C36.5,18.9,36.9,18.5,37.4,18.5z"/>
			<path class="st0" d="M39.6,18.6c0.4,0,0.8,0.4,0.8,0.8c0,0.4-0.4,0.8-0.8,0.8c-0.4,0-0.8-0.4-0.8-0.8
				C38.9,19,39.2,18.6,39.6,18.6z"/>
			<path class="st0" d="M41.9,18.8c0.4,0,0.7,0.3,0.7,0.7c0,0.4-0.3,0.7-0.7,0.7c-0.4,0-0.7-0.3-0.7-0.7
				C41.3,19.1,41.6,18.8,41.9,18.8z"/>
			<path class="st0" d="M44.2,18.9c0.3,0,0.5,0.2,0.5,0.5c0,0.3-0.2,0.5-0.5,0.5c-0.3,0-0.5-0.2-0.5-0.5
				C43.7,19.2,43.9,18.9,44.2,18.9z"/>
			<path class="st0" d="M46.5,19.1c0.2,0,0.4,0.2,0.4,0.4c0,0.2-0.2,0.4-0.4,0.4c-0.2,0-0.4-0.2-0.4-0.4
				C46.1,19.2,46.3,19.1,46.5,19.1z"/>
			<path class="st0" d="M48.8,19.2c0.1,0,0.2,0.1,0.2,0.2c0,0.1-0.1,0.2-0.2,0.2c-0.1,0-0.2-0.1-0.2-0.2
				C48.6,19.3,48.7,19.2,48.8,19.2z"/>
			<path class="st0" d="M51.1,19.4C51.1,19.4,51.1,19.4,51.1,19.4C51.1,19.5,51.1,19.5,51.1,19.4C51,19.5,51,19.5,51.1,19.4
				C51,19.4,51,19.4,51.1,19.4z"/>
			<circle class="st0" cx="12.3" cy="17.1" r="0"/>
			<path class="st0" d="M14.5,16.9c0.1,0,0.2,0.1,0.2,0.2c0,0.1-0.1,0.2-0.2,0.2c-0.1,0-0.2-0.1-0.2-0.2
				C14.4,17,14.4,16.9,14.5,16.9z"/>
			<path class="st0" d="M16.8,16.8c0.2,0,0.3,0.2,0.3,0.3c0,0.2-0.2,0.3-0.3,0.3c-0.2,0-0.3-0.2-0.3-0.3
				C16.5,16.9,16.6,16.8,16.8,16.8z"/>
			<path class="st0" d="M19.1,16.6c0.3,0,0.5,0.2,0.5,0.5c0,0.3-0.2,0.5-0.5,0.5c-0.3,0-0.5-0.2-0.5-0.5
				C18.6,16.8,18.8,16.6,19.1,16.6z"/>
			<path class="st0" d="M21.4,16.5c0.3,0,0.6,0.3,0.6,0.6c0,0.3-0.3,0.6-0.6,0.6c-0.3,0-0.6-0.3-0.6-0.6
				C20.8,16.8,21.1,16.5,21.4,16.5z"/>
			<path class="st0" d="M23.7,16.4c0.4,0,0.7,0.3,0.7,0.7c0,0.4-0.3,0.7-0.7,0.7c-0.4,0-0.7-0.3-0.7-0.7
				C23,16.7,23.3,16.4,23.7,16.4z"/>
			<path class="st0" d="M25.9,16.3c0.4,0,0.8,0.4,0.8,0.8c0,0.4-0.3,0.8-0.8,0.8c-0.4,0-0.8-0.4-0.8-0.8
				C25.2,16.7,25.5,16.3,25.9,16.3z"/>
			<path class="st0" d="M28.2,16.3c0.5,0,0.8,0.4,0.8,0.9c0,0.5-0.4,0.9-0.8,0.9c-0.5,0-0.8-0.4-0.8-0.9
				C27.4,16.6,27.8,16.3,28.2,16.3z"/>
			<path class="st0" d="M30.5,16.2c0.5,0,0.9,0.4,0.9,0.9c0,0.5-0.4,0.9-0.9,0.9c-0.5,0-0.9-0.4-0.9-0.9
				C29.7,16.6,30,16.2,30.5,16.2z"/>
			<path class="st0" d="M32.8,16.2c0.5,0,0.8,0.4,0.8,0.9c0,0.5-0.4,0.9-0.8,0.9c-0.5,0-0.8-0.4-0.8-0.9
				C31.9,16.6,32.3,16.2,32.8,16.2z"/>
			<path class="st0" d="M35.1,16.3c0.4,0,0.8,0.4,0.8,0.8c0,0.5-0.4,0.8-0.8,0.8c-0.4,0-0.8-0.4-0.8-0.8
				C34.3,16.7,34.6,16.3,35.1,16.3z"/>
			<path class="st0" d="M37.4,16.4c0.4,0,0.7,0.3,0.7,0.7c0,0.4-0.3,0.7-0.7,0.7c-0.4,0-0.7-0.3-0.7-0.7
				C36.6,16.7,37,16.4,37.4,16.4z"/>
			<path class="st0" d="M39.6,16.5c0.3,0,0.6,0.3,0.6,0.6c0,0.4-0.3,0.6-0.6,0.6c-0.3,0-0.6-0.3-0.6-0.6
				C39,16.8,39.3,16.5,39.6,16.5z"/>
			<path class="st0" d="M41.9,16.6c0.3,0,0.5,0.2,0.5,0.5c0,0.3-0.2,0.5-0.5,0.5c-0.3,0-0.5-0.2-0.5-0.5
				C41.4,16.8,41.6,16.6,41.9,16.6z"/>
			<path class="st0" d="M44.2,16.7c0.2,0,0.4,0.2,0.4,0.4c0,0.2-0.2,0.4-0.4,0.4c-0.2,0-0.4-0.2-0.4-0.4
				C43.8,16.9,44,16.7,44.2,16.7z"/>
			<path class="st0" d="M46.5,16.9c0.1,0,0.2,0.1,0.2,0.2c0,0.1-0.1,0.2-0.2,0.2c-0.1,0-0.2-0.1-0.2-0.2
				C46.3,17,46.4,16.9,46.5,16.9z"/>
			<path class="st0" d="M48.8,17C48.8,17,48.8,17.1,48.8,17c0.1,0.1,0,0.2,0,0.2C48.7,17.2,48.7,17.2,48.8,17
				C48.7,17.1,48.7,17,48.8,17z"/>
			<path class="st0" d="M14.5,14.7C14.6,14.7,14.6,14.8,14.5,14.7c0.1,0.1,0,0.1,0,0.1C14.5,14.8,14.5,14.8,14.5,14.7
				C14.5,14.8,14.5,14.7,14.5,14.7z"/>
			<path class="st0" d="M16.8,14.6c0.1,0,0.2,0.1,0.2,0.2c0,0.1-0.1,0.2-0.2,0.2c-0.1,0-0.2-0.1-0.2-0.2
				C16.6,14.7,16.7,14.6,16.8,14.6z"/>
			<path class="st0" d="M19.1,14.5c0.2,0,0.3,0.1,0.3,0.3c0,0.2-0.1,0.3-0.3,0.3c-0.2,0-0.3-0.1-0.3-0.3
				C18.8,14.6,18.9,14.5,19.1,14.5z"/>
			<path class="st0" d="M21.4,14.3c0.2,0,0.4,0.2,0.4,0.4c0,0.2-0.2,0.4-0.4,0.4c-0.2,0-0.4-0.2-0.4-0.4
				C21,14.5,21.1,14.3,21.4,14.3z"/>
			<path class="st0" d="M23.7,14.2c0.3,0,0.5,0.2,0.5,0.5c0,0.3-0.2,0.5-0.5,0.5c-0.3,0-0.5-0.2-0.5-0.5
				C23.1,14.5,23.4,14.2,23.7,14.2z"/>
			<path class="st0" d="M25.9,14.2c0.3,0,0.6,0.3,0.6,0.6c0,0.3-0.3,0.6-0.6,0.6c-0.3,0-0.6-0.3-0.6-0.6
				C25.4,14.4,25.6,14.2,25.9,14.2z"/>
			<path class="st0" d="M28.2,14.1c0.4,0,0.6,0.3,0.6,0.7c0,0.4-0.3,0.7-0.6,0.7c-0.4,0-0.6-0.3-0.6-0.7
				C27.6,14.4,27.9,14.1,28.2,14.1z"/>
			<path class="st0" d="M30.5,14.1c0.4,0,0.7,0.3,0.7,0.7c0,0.4-0.3,0.7-0.7,0.7s-0.7-0.3-0.7-0.7C29.9,14.4,30.2,14.1,30.5,14.1z"
				/>
			<path class="st0" d="M32.8,14.1c0.4,0,0.7,0.3,0.7,0.7c0,0.4-0.3,0.7-0.7,0.7c-0.4,0-0.7-0.3-0.7-0.7
				C32.1,14.4,32.4,14.1,32.8,14.1z"/>
			<path class="st0" d="M35.1,14.2c0.3,0,0.6,0.3,0.6,0.6s-0.3,0.6-0.6,0.6c-0.3,0-0.6-0.3-0.6-0.6S34.7,14.2,35.1,14.2z"/>
			<path class="st0" d="M37.4,14.2c0.3,0,0.6,0.3,0.6,0.6c0,0.3-0.2,0.6-0.6,0.6c-0.3,0-0.6-0.3-0.6-0.6
				C36.8,14.5,37.1,14.2,37.4,14.2z"/>
			<path class="st0" d="M39.6,14.3c0.3,0,0.5,0.2,0.5,0.5c0,0.3-0.2,0.5-0.5,0.5c-0.3,0-0.5-0.2-0.5-0.5
				C39.2,14.5,39.4,14.3,39.6,14.3z"/>
			<ellipse class="st0" cx="41.9" cy="14.8" rx="0.4" ry="0.4"/>
			<path class="st0" d="M44.2,14.5c0.1,0,0.2,0.1,0.2,0.2c0,0.1-0.1,0.2-0.2,0.2c-0.1,0-0.2-0.1-0.2-0.2
				C44,14.6,44.1,14.5,44.2,14.5z"/>
			<path class="st0" d="M46.5,14.7c0.1,0,0.1,0,0.1,0.1c0,0.1,0,0.1-0.1,0.1c-0.1,0-0.1,0-0.1-0.1C46.4,14.7,46.4,14.7,46.5,14.7z"
				/>
			<path class="st0" d="M21.4,12.2c0.1,0,0.3,0.1,0.3,0.3c0,0.1-0.1,0.3-0.3,0.3c-0.1,0-0.3-0.1-0.3-0.3
				C21.1,12.3,21.2,12.2,21.4,12.2z"/>
			<path class="st0" d="M23.7,12.1c0.2,0,0.3,0.2,0.3,0.3c0,0.2-0.2,0.3-0.3,0.3c-0.2,0-0.3-0.2-0.3-0.3
				C23.3,12.3,23.5,12.1,23.7,12.1z"/>
			<path class="st0" d="M25.9,12c0.2,0,0.4,0.2,0.4,0.4c0,0.2-0.2,0.4-0.4,0.4c-0.2,0-0.4-0.2-0.4-0.4C25.5,12.2,25.7,12,25.9,12z"
				/>
			<path class="st0" d="M28.2,12c0.2,0,0.4,0.2,0.4,0.5c0,0.3-0.2,0.5-0.4,0.5c-0.2,0-0.4-0.2-0.4-0.5C27.8,12.2,28,12,28.2,12z"/>
			<path class="st0" d="M30.5,12c0.3,0,0.5,0.2,0.5,0.5c0,0.3-0.2,0.5-0.5,0.5c-0.3,0-0.5-0.2-0.5-0.5C30.1,12.2,30.3,12,30.5,12z"
				/>
			<path class="st0" d="M32.8,12c0.3,0,0.5,0.2,0.5,0.5c0,0.3-0.2,0.5-0.5,0.5c-0.3,0-0.5-0.2-0.5-0.5C32.3,12.2,32.5,12,32.8,12z"
				/>
			<path class="st0" d="M35.1,12c0.2,0,0.4,0.2,0.4,0.4c0,0.2-0.2,0.4-0.4,0.4c-0.2,0-0.4-0.2-0.4-0.4C34.7,12.2,34.8,12,35.1,12z"
				/>
			<path class="st0" d="M37.4,12.1c0.2,0,0.4,0.2,0.4,0.4c0,0.2-0.2,0.4-0.4,0.4c-0.2,0-0.4-0.2-0.4-0.4
				C37,12.2,37.2,12.1,37.4,12.1z"/>
			<path class="st0" d="M39.6,12.2c0.2,0,0.3,0.1,0.3,0.3c0,0.2-0.1,0.3-0.3,0.3c-0.2,0-0.3-0.1-0.3-0.3
				C39.4,12.3,39.5,12.2,39.6,12.2z"/>
		</g>
	</g>
	<g>
		<g>
			<g>
				<path class="st1" d="M16.6,39.4c0.4-1.6,0.2-3-0.5-3.9c-1.8-2.2-6.1-2.1-6.1-2.1l-5.3,0.2l5-1.8c2-0.7,3.6-1.6,4.7-2.5
					c0.8-0.7,1.4-1.5,1.6-2.4c0.5-1.8-0.7-3.4-0.7-3.4l-3-3.7l4.1,2.5c2.5,1.5,4.8,2.3,6.9,2.2c2.3-0.1,4-1.2,5-2
					c1.1-1,1.6-1.9,1.6-1.9l0.6-1.1l0.8,0.9c1.4,1.7,3.2,2.5,5.4,2.4c3.8-0.1,7.5-2.8,7.5-2.8l1.3-1l0,1.7c0,2,0.8,3.8,2.6,5.1
					c1.4,1,2.7,1.4,2.8,1.5l2.5,0.7l-2.5,0.9c-2.3,0.8-3.5,2.4-3.8,4.8c-0.2,1.9,0.3,3.6,0.3,3.6l0.7,2.3L46,38
					c-1.5-1.1-3.1-1.6-4.9-1.5C37,36.7,33.4,40,33.4,40l-0.7,0.6l-0.5-0.8c-1.2-1.7-3-2.5-5.5-2.4c-4.2,0.1-8.8,2.8-8.8,2.8l-1.7,1
					L16.6,39.4z"/>
				<path class="st2" d="M30.6,21.1c0,0-4.5,8.3-14.6,2.1c0,0,4.7,5.8-6,9.6c0,0,9.3-0.3,7.5,7.1c0,0,11-6.5,15.4-0.1
					c0,0,7.1-6.8,13.7-2.1c0,0-2.1-7.3,4-9.4c0,0-6.1-1.7-6-7.4C44.6,20.9,35.8,27.4,30.6,21.1z"/>
			</g>
			<g>
				<g>
					<g>
						<g>
							<path class="st3" d="M53.6,38.4c-0.1,0.4-0.4,0.7-0.6,0.9c0.7,0.2,1.2,0.2,1.5,0.1c0.7-0.4,0.6-1,0.5-1.8
								c-0.4,0.2-0.8,0.4-1.2,0.6c0.2-0.1,0.7-0.5,1.2-0.9c0-0.1,0-0.2,0-0.3c0,0,0.1,0.1,0.1,0.2c0.5-0.4,0.9-0.9,0.9-1.2
								c0-0.8-0.9-1.1-1.8-1.6c0,0,0,0.1,0,0.1c0-0.1-0.1-0.1-0.1-0.2c-0.2-0.1-0.3-0.2-0.5-0.3c0.1,0,0.3,0.1,0.4,0.1
								c-0.2-0.5-0.4-1.1-1-1.2c-0.5,0-0.8,0.1-1.2,0.3c0.2,0.1,0.4,0.2,0.6,0.3c0,0-1.6-0.3-1.8,0.5c-0.1,0.2-0.2,0.6-0.2,0.9
								c0.1-0.1,0.2-0.1,0.3-0.1c-0.1,0-0.2,0.1-0.3,0.2c0,0.2,0,0.3,0,0.4c0-0.1-0.1-0.2-0.1-0.3c-0.2,0.2-0.4,0.5-0.4,0.9
								c0,0.3,0.3,0.9,0.5,1.3c0,0,0-0.1,0-0.1c0,0.1,0,0.1,0,0.2c0,0.1,0.1,0.2,0.1,0.2c0-0.1-0.1-0.1-0.1-0.2
								c0.1,0.5,0.4,1.4,1,1.6C52.1,39.3,52.6,39,53.6,38.4z"/>
							<g>
								<path class="st1" d="M57,35.5c0-0.8-1-1-2.1-1.3c-0.2,0-0.4-0.1-0.7-0.1c0.1-0.8,0.1-1.4-0.2-1.8C54,32.1,53.8,32,53.6,32
									c-0.1,0-0.1,0-0.2,0c-0.6,0-1.2,0.4-1.8,1.1c-0.1,0-0.2-0.1-0.4-0.1c-0.3,0-0.5,0.1-0.7,0.3c-0.4,0.5-0.4,1.3-0.3,1.6
									c-0.4,0.2-0.6,0.5-0.6,0.9c0,0.4,0.2,0.8,0.6,1.4c-0.4,1.2,0.1,2.2,0.7,2.5c0.2,0.1,0.5,0.1,0.7,0.1c0.4,0,0.8-0.1,1.1-0.3
									c0.5,0.4,1,0.6,1.4,0.6c0.2,0,0.4-0.1,0.6-0.2c0.9-0.5,1-1.4,0.6-2.5C56.3,36.8,57,36,57,35.5z M55.1,37l-0.2-0.4l0,0.3
									c0,0.1,0,0.2,0,0.2c-0.5,0.4-1,0.8-1.1,0.9l-0.4,0.3l0.4-0.1c0.3-0.1,0.7-0.3,1.1-0.5c0.1,0.8,0.2,1.3-0.5,1.7
									c-0.1,0.1-0.3,0.1-0.5,0.1c-0.2,0-0.5,0-0.9-0.1c0.2-0.2,0.4-0.5,0.5-0.8l0.1-0.2l-0.2,0.1C52.8,38.8,52.4,39,52,39
									c-0.2,0-0.4,0-0.6-0.1c-0.5-0.2-0.8-0.9-0.9-1.4l0.1-0.1c0-0.1-0.1-0.1-0.1-0.2c0-0.1,0-0.1,0-0.2l0-0.4L50.4,37
									c-0.2-0.4-0.4-0.9-0.4-1.1c0-0.3,0.1-0.6,0.3-0.8c0,0.1,0,0.2,0.1,0.2l0.3,1.1l-0.2-1.1c0-0.1,0-0.2,0-0.3
									c0.1-0.1,0.2-0.1,0.3-0.2l0-0.1c-0.1,0-0.2,0.1-0.2,0.1c0-0.3,0.1-0.6,0.2-0.8c0.1-0.4,0.7-0.5,1.1-0.5c0.3,0,0.5,0,0.6,0
									c0,0,0,0,0,0c0,0,0,0,0,0l0.1,0l-0.2-0.1c-0.1-0.1-0.3-0.1-0.4-0.2c0.3-0.2,0.6-0.3,0.9-0.3c0.1,0,0.1,0,0.2,0
									c0.5,0.1,0.7,0.4,0.8,0.9c0,0,0,0.1,0.1,0.1c-0.1,0-0.2-0.1-0.3-0.1l-0.5-0.2l0.5,0.3c0.2,0.1,0.3,0.2,0.4,0.2
									c0,0,0.1,0.1,0.1,0.1l0.1,0.2l0-0.2c0.1,0,0.2,0.1,0.3,0.1c0.8,0.4,1.4,0.7,1.4,1.4C55.9,36.1,55.6,36.5,55.1,37z"/>
							</g>
						</g>
						<path class="st1" d="M50.5,37.5c0,0.1,0.1,0.1,0.1,0.1C50.6,37.6,50.6,37.5,50.5,37.5z"/>
						<path class="st1" d="M50.7,34.8c0.1,0,0.2-0.1,0.3-0.1C50.9,34.7,50.8,34.7,50.7,34.8z"/>
						<path class="st1" d="M51,34.7C51,34.7,51,34.7,51,34.7C51,34.7,51,34.7,51,34.7z"/>
					</g>
					<g>
						<g>
							<polygon class="st3" points="52.5,38.6 45.7,32.8 45.6,32.7 54.2,35 							"/>
							<polygon class="st1" points="47.7,33.9 53.1,36.8 52.4,36.9 							"/>
						</g>
						<g>
							<polygon class="st1" points="47,33 50.9,34.3 51.3,34.2 							"/>
						</g>
						<g>
							<polygon class="st1" points="46.5,33 51.9,35.5 52.5,35.4 							"/>
						</g>
						<g>
							<polygon class="st1" points="51,37 51.5,37.9 45.2,32.5 							"/>
							<polygon class="st3" points="46.3,33.4 50.9,37.1 51.3,37.7 							"/>
						</g>
					</g>
				</g>
			</g>
		</g>
		<g>
			<g>
				<g>
					<path d="M16.2,31.7c-0.2,1-0.4,2.1-0.6,3.2L14,35.5c0.4-2.3,0.9-4.5,1.5-6.8l-0.3-1.3l1.2-1.2l1.1,4.3l2.3-4.5l1.5-0.2
						c-0.6,2.9-1.1,5.4-1.5,7.6L18.1,34c0.2-1,0.3-1.9,0.5-3l-1.8,3.4L16.2,31.7z"/>
					<path d="M21.7,31.6c-0.2,0.6-0.3,1-0.3,1.3l-1.3,0.4c0-0.6,0.2-1.4,0.6-2.4c0.3-1,1.1-2.3,2.2-4.1l0.9-0.1
						c0.3,1.1,0.5,2,0.5,2.6c0.1,0.6,0.1,1.1,0.1,1.4c0,0.5,0,1-0.1,1.4l-1.2,0.4c0-0.5,0-0.9,0-1.2L21.7,31.6z M22.2,30.2l0.9-0.2
						c0-0.4-0.1-0.8-0.2-1.2C22.8,29.1,22.5,29.6,22.2,30.2z"/>
					<path d="M26.2,30.2c-0.2,0.8-0.4,1.7-0.5,2.6l-1.3,0.4c0.3-1.7,0.7-3.4,1.2-5.2l-0.3-0.9l1-0.5l1.1,3.3
						c0.2-1.1,0.4-2.2,0.7-3.3l1.2-0.2c-0.4,2-0.8,3.8-1.1,5.5l-1.3,0.4L26.2,30.2z"/>
					<path d="M30.1,32.5l-1.3,0.4c0.3-2.1,0.8-4.1,1.3-6.1l1.3-0.1C30.8,28.7,30.4,30.6,30.1,32.5z"/>
					<path d="M32.1,31.6c-0.2,0.6-0.3,1-0.3,1.3l-1.3,0.4c0-0.6,0.2-1.4,0.6-2.4c0.3-1,1.1-2.3,2.2-4.1l0.9-0.1
						c0.3,1.1,0.5,2,0.5,2.6c0.1,0.6,0.1,1.1,0.1,1.4c0,0.5,0,1-0.1,1.4l-1.2,0.4c0-0.5,0-0.9,0-1.2L32.1,31.6z M32.6,30.2l0.9-0.2
						c0-0.4-0.1-0.8-0.2-1.2C33.1,29.1,32.9,29.6,32.6,30.2z"/>
					<path d="M38.6,32c-0.6,0.5-1.2,0.8-1.9,0.7c-0.7-0.1-1.2-0.5-1.4-1.2c-0.3-0.7-0.3-1.6-0.1-2.5c0.2-0.9,0.7-1.6,1.3-2
						c0.6-0.4,1.2-0.5,1.8-0.4c0.5,0.1,1.1,0.6,1.6,1.3l-1.1,1.1c-0.2-0.7-0.5-1.1-0.8-1.3c-0.3-0.1-0.6,0-1,0.3
						c-0.3,0.3-0.6,0.7-0.7,1.2c-0.1,0.5-0.1,1,0,1.4c0.1,0.5,0.3,0.8,0.6,0.8c0.3,0.1,0.6,0,0.9-0.2c0.3-0.2,0.4-0.5,0.5-0.8
						l0.8,0.9C39,31.6,38.8,31.8,38.6,32z"/>
					<path d="M43.5,28.5l0.5-0.1c0.2,0.4,0.2,1,0,1.8c-0.1,0.8-0.5,1.4-1.1,1.9c-0.6,0.5-1.3,0.7-1.9,0.6c-0.7-0.1-1.1-0.5-1.4-1.1
						c-0.3-0.6-0.3-1.5,0-2.5c0.2-1,0.7-1.7,1.4-2.1c0.7-0.4,1.3-0.5,1.8-0.4s1.1,0.5,1.6,1.2L43.5,28.5z M43.1,28.6
						c-0.2-0.6-0.5-0.9-0.8-0.9c-0.3-0.1-0.6,0.1-0.9,0.4c-0.3,0.3-0.6,0.7-0.7,1.3s-0.1,1,0,1.5c0.1,0.4,0.3,0.7,0.6,0.7
						c0.3,0.1,0.6-0.1,0.9-0.4c0.3-0.3,0.5-0.7,0.7-1.2c0.1-0.5,0.1-0.9,0.1-1.3L43.1,28.6z"/>
					<path d="M45.6,30.6c-0.2,0.7-0.3,1.5-0.4,2.3l-1.3,0.4c0.3-1.6,0.6-3.2,1.1-4.8l-0.3-0.9l0.9-0.8l1,3l1.8-3.2l1.2-0.2
						c-0.5,2-0.8,3.8-1,5.3l-1.3,0.4c0.1-0.7,0.2-1.4,0.4-2.1l-1.4,2.4L45.6,30.6z"/>
				</g>
				<g>
					<path class="st4" d="M16.6,31.3c-0.2,1-0.4,2.1-0.6,3.2l-1.6,0.6c0.4-2.3,0.9-4.5,1.5-6.8L15.5,27l1.2-1.2l1.1,4.3l2.3-4.5
						l1.5-0.2c-0.6,2.9-1.1,5.4-1.5,7.6l-1.6,0.6c0.2-1,0.3-1.9,0.5-3L17.3,34L16.6,31.3z"/>
					<path class="st4" d="M22.1,31.2c-0.2,0.6-0.3,1-0.3,1.3l-1.3,0.4c0-0.6,0.2-1.4,0.6-2.4c0.3-1,1.1-2.3,2.2-4.1l0.9-0.1
						c0.3,1.1,0.5,2,0.5,2.6c0.1,0.6,0.1,1.1,0.1,1.4c0,0.5,0,1-0.1,1.4L23.5,32c0-0.5,0-0.9,0-1.2L22.1,31.2z M22.6,29.9l0.9-0.2
						c0-0.4-0.1-0.8-0.2-1.2C23.2,28.7,22.9,29.2,22.6,29.9z"/>
					<path class="st4" d="M26.6,29.9c-0.2,0.8-0.4,1.7-0.5,2.6l-1.3,0.4c0.3-1.7,0.7-3.4,1.2-5.2l-0.3-0.9l1-0.5l1.1,3.3
						c0.2-1.1,0.4-2.2,0.7-3.3l1.2-0.2c-0.4,2-0.8,3.8-1.1,5.5l-1.3,0.4L26.6,29.9z"/>
					<path class="st4" d="M30.5,32.1l-1.3,0.4c0.3-2.1,0.8-4.1,1.3-6.1l1.3-0.1C31.2,28.3,30.8,30.3,30.5,32.1z"/>
					<path class="st4" d="M32.5,31.2c-0.2,0.6-0.3,1-0.3,1.3l-1.3,0.4c0-0.6,0.2-1.4,0.6-2.4c0.3-1,1.1-2.3,2.2-4.1l0.9-0.1
						c0.3,1.1,0.5,2,0.5,2.6c0.1,0.6,0.1,1.1,0.1,1.4c0,0.5,0,1-0.1,1.4L33.9,32c0-0.5,0-0.9,0-1.2L32.5,31.2z M33,29.9l0.9-0.2
						c0-0.4-0.1-0.8-0.2-1.2C33.5,28.7,33.3,29.2,33,29.9z"/>
					<path class="st4" d="M39,31.6c-0.6,0.5-1.2,0.8-1.9,0.7c-0.7-0.1-1.2-0.5-1.4-1.2c-0.3-0.7-0.3-1.6-0.1-2.5
						c0.2-0.9,0.7-1.6,1.3-2c0.6-0.4,1.2-0.5,1.8-0.4c0.5,0.1,1.1,0.6,1.6,1.3l-1.1,1.1c-0.2-0.7-0.5-1.1-0.8-1.3
						c-0.3-0.1-0.6,0-1,0.3c-0.3,0.3-0.6,0.7-0.7,1.2c-0.1,0.5-0.1,1,0,1.4c0.1,0.5,0.3,0.8,0.6,0.8s0.6,0,0.9-0.2
						c0.3-0.2,0.4-0.5,0.5-0.8l0.8,0.9C39.4,31.2,39.2,31.4,39,31.6z"/>
					<path class="st4" d="M43.9,28.2l0.5-0.1c0.2,0.4,0.2,1,0,1.8c-0.1,0.8-0.5,1.4-1.1,1.9c-0.6,0.5-1.3,0.7-1.9,0.6
						c-0.7-0.1-1.1-0.5-1.4-1.1c-0.3-0.6-0.3-1.5,0-2.5c0.2-1,0.7-1.7,1.4-2.1c0.7-0.4,1.3-0.5,1.8-0.4c0.5,0.1,1.1,0.5,1.6,1.2
						L43.9,28.2z M43.5,28.2c-0.2-0.6-0.5-0.9-0.8-0.9c-0.3-0.1-0.6,0.1-0.9,0.4c-0.3,0.3-0.6,0.7-0.7,1.3c-0.1,0.6-0.1,1,0,1.5
						c0.1,0.4,0.3,0.7,0.6,0.7c0.3,0.1,0.6-0.1,0.9-0.4c0.3-0.3,0.5-0.7,0.7-1.2c0.1-0.5,0.1-0.9,0.1-1.3L43.5,28.2z"/>
					<path class="st4" d="M46,30.2c-0.2,0.7-0.3,1.5-0.4,2.3l-1.3,0.4c0.3-1.6,0.6-3.2,1.1-4.8L45,27.2l0.9-0.8l1,3l1.8-3.2l1.2-0.2
						c-0.5,2-0.8,3.8-1,5.3l-1.3,0.4c0.1-0.7,0.2-1.4,0.4-2.1l-1.4,2.4L46,30.2z"/>
				</g>
			</g>
		</g>
	</g>
</g>
<g>
	<g>
		<path class="st3" d="M9,24.3c0.4-0.1,1.6-0.4,1.6-1.1c0-0.2-0.1-0.5-0.2-0.8c-0.1,0.1-0.3,0.2-0.5,0.3c0,0,0.2-0.2,0.4-0.4
			c-0.1-0.2-0.2-0.4-0.2-0.5c0.1,0.1,0.2,0.3,0.3,0.4c0.4-0.5,0.8-1.2,0.6-2c-0.1-0.3-0.4-0.9-0.7-1.4c-0.1,0.4-0.2,0.8-0.3,1.2
			c0-0.3,0-0.9,0-1.6c0,0-0.1-0.1-0.1-0.1c0,0-0.1-0.1-0.1-0.1c0,0,0.1,0.1,0.1,0.1c0,0,0.1,0.1,0.1,0.1c-0.1-1-0.2-2.1-0.6-2.3
			c-1.1-0.8-2.7,0.4-4.2,1.1c0.6-0.5,1.2-1,1.8-1.4c-0.7-0.1-1.3,0.1-1.9,0.5c-0.7,0.5-0.8,1.7-0.6,2.8c0.1,0,0.1-0.1,0.2-0.1
			c0,0.1-0.1,0.2-0.2,0.3c0.1,0.7,0.3,1.4,0.4,2c-0.1-0.1-0.7-1-0.7-1.1C4,20.1,4,20,3.9,19.9c-0.6,0.7-1.2,1.5-1,2.2
			c0.3,0.8,0.8,1,1.5,1.5c0-0.4,0-0.8,0.1-1.3c0,0.7,0.7,2.1,1.6,2.5c1,0.3,1.7-0.1,3-1C9.1,24,9,24.2,9,24.3z"/>
		<g>
			<path class="st1" d="M10.9,23.8c0.1-0.4,0-0.9-0.2-1.4c0.5-0.5,0.9-1.3,0.8-2.1c-0.1-0.5-0.4-0.9-0.9-1.6
				c0.4-2.1,0.3-3.4-0.5-3.9c-0.9-0.6-2.1,0.1-3,0.8c0,0-0.1-0.1-0.1-0.1c-1.1-0.7-2.2-0.8-3-0.2c-1,0.7-1.1,2.4-0.2,4.2
				c-1.2,0.8-2.4,1.8-2.1,2.8c0.1,0.4,0.4,0.7,0.7,1c0.5,0.3,1.2,0.5,2.1,0.5c0.1,0.8,0.5,1.6,1,1.9l0,0c0.1,0.1,0.2,0.1,0.4,0.2
				c1.1,0.3,2.5-0.1,3.2-1.5C9.7,24.5,10.6,24.6,10.9,23.8z M9.1,24.2c0.1-0.1,0.1-0.3,0.1-0.4l0.1-0.3l-0.2,0.2
				c-1.2,1-1.9,1.4-2.9,1c-0.1,0-0.2-0.1-0.3-0.2c-0.7-0.5-1.2-1.7-1.2-2.2l0-0.6l-0.2,0.6c-0.1,0.4-0.1,0.8-0.1,1.1
				c-0.1-0.1-0.1-0.1-0.2-0.1c-0.1-0.1-0.2-0.1-0.3-0.2c-0.4-0.3-0.7-0.6-0.9-1c-0.2-0.6,0.3-1.3,0.9-2l0,0c0,0,0.1,0.1,0.1,0.1
				c0.1,0.1,0.7,1,0.7,1.1L5,21.7l-0.1-0.6c-0.1-0.6-0.3-1.2-0.3-1.8c0.1-0.1,0.1-0.2,0.2-0.3l0.1-0.3L4.5,19
				c-0.1-1.4,0-2.2,0.6-2.6c0.5-0.3,1-0.5,1.6-0.5c-0.4,0.3-0.9,0.7-1.3,1.1l-0.9,0.7l0.7-0.3C5.5,17.1,5.7,17,6,16.8
				c1.3-0.7,2.4-1.3,3.4-0.7c0.2,0.1,0.5,0.6,0.6,2.2l-0.1,0.1c0,0,0.1,0.1,0.1,0.1c0,0.6,0,1.2,0,1.5l0,0.8l0.2-0.7
				c0.1-0.4,0.2-0.7,0.2-1c0.3,0.5,0.5,0.9,0.6,1.2c0.2,0.7-0.2,1.3-0.5,1.8c-0.1-0.1-0.2-0.2-0.3-0.3l-1.1-1.3l1,1.4
				c0.1,0.1,0.1,0.2,0.2,0.5c-0.1,0.2-0.3,0.3-0.3,0.4c-0.1,0.1-0.1,0.1-0.1,0.1l0,0.2l0.2-0.1c0.1-0.1,0.3-0.1,0.4-0.2
				c0.1,0.2,0.1,0.5,0.1,0.6C10.5,23.8,9.6,24.1,9.1,24.2z"/>
		</g>
		<path class="st5" d="M9.9,18.3c-0.1-0.1-0.1-0.1-0.1-0.1C9.8,18.2,9.9,18.3,9.9,18.3z"/>
	</g>
	<g>
		<polygon class="st3" points="8.2,17.1 19.3,23.9 19.4,24.1 6.5,22.7 		"/>
		<polygon class="st1" points="19.2,24.1 7.1,19.4 6,18.1 		"/>
	</g>
	<g>
		<polygon class="st1" points="17.4,23.8 9.9,22.8 9.6,23 		"/>
	</g>
	<g>
		<polygon class="st1" points="7.5,20.8 18.9,24 6.2,21.4 		"/>
		<polygon class="st3" points="18.1,23.8 7.5,20.8 6.6,21.3 		"/>
	</g>
	<g>
		<polygon class="st1" points="20.1,24.4 9.1,18.3 8.7,17.2 		"/>
	</g>
</g>
</svg>
